<?xml version="1.0" encoding="utf-8"?>
<!-- Generator: Adobe Illustrator 18.1.1, SVG Export Plug-In . SVG Version: 6.00 Build 0)  -->
<svg version="1.1" id="Layer_1" xmlns="http://www.w3.org/2000/svg" xmlns:xlink="http://www.w3.org/1999/xlink" x="0px" y="0px"
	 viewBox="0 0 396 242" enable-background="new 0 0 396 242" xml:space="preserve">
<g>
	<path fill="#FFFFFF" d="M42.6,55.4v23.9h1.7c3.2-10.2,7.8-16.6,14.1-20.2c6.3-3.9,14.4-5.1,24.1-5.1c28.3,0,41.2,13.4,41.2,41v88.5
		H81.9v-78.8c-0.2-12.4-3.7-18.5-17.3-18.5c-18.8,0-21.9,11.2-21.9,26.8v70.5H0.7v-128H42.6z"/>
	<path fill="#FFFFFF" d="M185.3,183.4h-41.9v-128h41.9V183.4z"/>
	<path fill="#FFFFFF" d="M251.9,183.4h-41.9V0.5h41.9V183.4z"/>
	<path fill="#FFFFFF" d="M395,140.7c0,19.3-6.3,30.2-17.3,36.6c-11,6.1-26.6,7.6-45.1,7.6c-50.5,0-62.7-17.6-62.7-65.3
		c0-49.3,11.2-65.6,62.7-65.6c48,0,62.4,13.4,62.4,65.6v7.1h-83.1c0,22.4,3.4,29,20.7,29c12.9,0,21.2-1.5,21.2-14.9H395z
		 M353.1,103.4c0-19-7.1-20.2-21.2-20.2c-14.9,0-19.5,3.4-20,20.2H353.1z"/>
	<g>
		<path fill="#FFFFFF" d="M4.4,217.2h-4.8v-5.3H16v5.3h-4.8v24.4H4.4V217.2z"/>
		<path fill="#FFFFFF" d="M22.3,211.9h8.4c7.3,0,9.4,1.5,9.4,7.1v3.6c0,4.5-1.8,5.5-4.6,6v0.1c3,0.7,4.6,1.2,4.6,4.8v8.1h-6.8v-8.5
			c0-1.2-0.7-1.8-3-1.8h-1.1v10.3h-6.8V211.9z M29.1,226.3h1.3c2.4,0,2.8-0.7,2.8-2.6v-4.5c0-1.5-0.6-2.2-2.1-2.2h-2.1V226.3z"/>
		<path fill="#FFFFFF" d="M50.8,211.9h11.1l4.5,29.7h-6.9l-0.9-7.1h-4.4l-0.9,7.1h-6.9L50.8,211.9z M56.3,216L56.3,216l-1.7,13.4
			h3.3L56.3,216z"/>
		<path fill="#FFFFFF" d="M68.7,211.9h7l2.7,26.1h0.1l2.7-26.1h7l-3.9,29.7H72.7L68.7,211.9z"/>
		<path fill="#FFFFFF" d="M94.4,211.9h13.1v5.3h-6.3v6.5h5.8v5.1h-5.8v7.4h6.8v5.3H94.4V211.9z"/>
		<path fill="#FFFFFF" d="M115.4,211.9h6.8v24.4h6.6v5.3h-13.4V211.9z"/>
		<path fill="#FFFFFF" d="M149.3,211.9h6.8v24.4h6.6v5.3h-13.4V211.9z"/>
		<path fill="#FFFFFF" d="M169.9,211.9h6.8v29.7h-6.8V211.9z"/>
		<path fill="#FFFFFF" d="M185.2,211.9h6.8v12.5l0,0.1h0.1l4.3-12.6h7.3l-5.8,14.1l6.5,15.6h-7.3l-5.1-13.3h-0.1l0,0.1v13.2h-6.8
			V211.9z"/>
		<path fill="#FFFFFF" d="M210,211.9h13.1v5.3h-6.3v6.5h5.8v5.1h-5.8v7.4h6.8v5.3H210V211.9z"/>
		<path fill="#FFFFFF" d="M247.6,211.9h11.1l4.5,29.7h-6.9l-0.9-7.1h-4.4l-0.9,7.1h-6.9L247.6,211.9z M253.1,216L253.1,216
			l-1.7,13.4h3.3L253.1,216z"/>
		<path fill="#FFFFFF" d="M283.3,211.9h6.8v24.4h6.6v5.3h-13.4V211.9z"/>
		<path fill="#FFFFFF" d="M303,217.7c0-4.8,3.1-6.1,8.8-6.1s8.8,1.3,8.8,6.1v18.1c0,4.8-3.1,6.1-8.8,6.1s-8.8-1.3-8.8-6.1V217.7z
			 M313.6,218c0-1.1-0.5-1.4-1.8-1.4c-1.3,0-1.8,0.3-1.8,1.4v17.4c0,1.1,0.5,1.4,1.8,1.4c1.3,0,1.8-0.3,1.8-1.4V218z"/>
		<path fill="#FFFFFF" d="M327.9,218.8c0-4.8,1.8-7.2,6.9-7.2h2.5c5.9,0,7.8,1.6,7.8,5.1v5.4h-6.6v-3.9c0-0.9-0.6-1.3-1.7-1.3
			c-1.2,0-1.8,0.4-1.8,1.3v17.2c0,0.9,0.6,1.3,1.8,1.3c1.1,0,1.8-0.4,1.8-1.3v-4.7h6.6v4.4c0,5.3-2,6.9-7.8,6.9h-2.5
			c-5,0-6.9-2.5-6.9-6.4V218.8z"/>
		<path fill="#FFFFFF" d="M355.1,211.9h11.1l4.5,29.7h-6.9l-0.9-7.1h-4.4l-0.9,7.1h-6.9L355.1,211.9z M360.7,216L360.7,216
			l-1.7,13.4h3.3L360.7,216z"/>
		<path fill="#FFFFFF" d="M377.1,211.9h6.8v24.4h6.6v5.3h-13.4V211.9z"/>
	</g>
</g>
</svg>
