<?xml version="1.0" encoding="utf-8"?>
<!-- Generator: Adobe Illustrator 18.1.1, SVG Export Plug-In . SVG Version: 6.00 Build 0)  -->
<svg version="1.1" id="Layer_1" xmlns="http://www.w3.org/2000/svg" xmlns:xlink="http://www.w3.org/1999/xlink" x="0px" y="0px"
	 viewBox="0 0 60 54.7" enable-background="new 0 0 60 54.7" xml:space="preserve">
<g>
	<path fill="#FFFFFF" d="M44.3,22.2C44.3,9.9,34.4,0,22.2,0C9.9,0,0,9.9,0,22.2l0,32.1h12.7V23.2c0-5.2,4.2-9.5,9.5-9.5
		c5.2,0,9.5,4.2,9.5,9.5v7.2c0,3.5,2.8,6.3,6.3,6.3c3.5,0,6.4-2.8,6.4-6.3V22.2z"/>
	<path fill="#FFFFFF" d="M15.7,32.3c0,12.2,9.9,22.2,22.2,22.2S60,44.5,60,32.3V0.2l-12.7,0v31.1c0,5.2-4.2,9.5-9.5,9.5
		c-5.2,0-9.5-4.2-9.5-9.5v-7.2c0-3.5-2.8-6.3-6.3-6.3s-6.4,2.8-6.4,6.3V32.3z"/>
</g>
</svg>
