<?xml version="1.0" encoding="utf-8"?>
<!-- Generator: Adobe Illustrator 18.1.1, SVG Export Plug-In . SVG Version: 6.00 Build 0)  -->
<svg version="1.1" id="Layer_1" xmlns="http://www.w3.org/2000/svg" xmlns:xlink="http://www.w3.org/1999/xlink" x="0px" y="0px"
	 viewBox="0 0 400 250" enable-background="new 0 0 400 250" xml:space="preserve">
<rect x="145.9" y="4.3" fill="#FFFFFF" width="41.5" height="35.5"/>
<path fill="#FFFFFF" d="M44.8,59.2v23.9h1.7c3.2-10.2,7.8-16.6,14.1-20.2c6.3-3.9,14.4-5.1,24.1-5.1c28.3,0,41.2,13.4,41.2,41v88.5
	H84v-78.8C83.8,96,80.4,89.9,66.7,89.9c-18.8,0-21.9,11.2-21.9,26.8v70.5H2.8v-128H44.8z"/>
<path fill="#FFFFFF" d="M187.4,187.2h-41.9v-128h41.9V187.2z"/>
<path fill="#FFFFFF" d="M254,187.2h-41.9V4.3H254V187.2z"/>
<path fill="#FFFFFF" d="M398.2,144.5c0,19.3-6.3,30.2-17.3,36.6c-11,6.1-26.6,7.6-45.1,7.6c-50.5,0-62.7-17.6-62.7-65.3
	c0-49.3,11.2-65.6,62.7-65.6c48,0,62.4,13.4,62.4,65.6v7.1H315c0,22.4,3.4,29,20.7,29c12.9,0,21.2-1.5,21.2-14.9H398.2z
	 M356.2,107.2c0-19-7.1-20.2-21.2-20.2c-14.9,0-19.5,3.4-20,20.2H356.2z"/>
<g>
	<path fill="#FFFFFF" d="M6.6,221H1.8v-5.3h16.3v5.3h-4.8v24.4H6.6V221z"/>
	<path fill="#FFFFFF" d="M24.5,215.7h8.4c7.3,0,9.4,1.5,9.4,7.1v3.6c0,4.5-1.8,5.5-4.6,6v0.1c3,0.7,4.6,1.2,4.6,4.8v8.1h-6.8v-8.5
		c0-1.2-0.7-1.8-3-1.8h-1.1v10.3h-6.8V215.7z M31.3,230h1.3c2.4,0,2.8-0.7,2.8-2.6V223c0-1.5-0.6-2.2-2.1-2.2h-2.1V230z"/>
	<path fill="#FFFFFF" d="M52.9,215.7H64l4.5,29.7h-6.9l-0.9-7.1h-4.4l-0.9,7.1h-6.9L52.9,215.7z M58.5,219.8L58.5,219.8l-1.7,13.4
		h3.3L58.5,219.8z"/>
	<path fill="#FFFFFF" d="M70.9,215.7h7l2.7,26.1h0.1l2.7-26.1h7l-3.9,29.7H74.8L70.9,215.7z"/>
	<path fill="#FFFFFF" d="M96.6,215.7h13.1v5.3h-6.3v6.5h5.8v5.1h-5.8v7.4h6.8v5.3H96.6V215.7z"/>
	<path fill="#FFFFFF" d="M117.6,215.7h6.8V240h6.6v5.3h-13.4V215.7z"/>
	<path fill="#FFFFFF" d="M151.5,215.7h6.8V240h6.6v5.3h-13.4V215.7z"/>
	<path fill="#FFFFFF" d="M172.1,215.7h6.8v29.7h-6.8V215.7z"/>
	<path fill="#FFFFFF" d="M187.3,215.7h6.8v12.5l0,0.1h0.1l4.3-12.6h7.3l-5.8,14.1l6.5,15.6h-7.3l-5.1-13.3h-0.1l0,0.1v13.2h-6.8
		V215.7z"/>
	<path fill="#FFFFFF" d="M212.1,215.7h13.1v5.3h-6.3v6.5h5.8v5.1h-5.8v7.4h6.8v5.3h-13.6V215.7z"/>
	<path fill="#FFFFFF" d="M249.7,215.7h11.1l4.5,29.7h-6.9l-0.9-7.1H253l-0.9,7.1h-6.9L249.7,215.7z M255.3,219.8L255.3,219.8
		l-1.7,13.4h3.3L255.3,219.8z"/>
	<path fill="#FFFFFF" d="M285.4,215.7h6.8V240h6.6v5.3h-13.4V215.7z"/>
	<path fill="#FFFFFF" d="M305.2,221.4c0-4.8,3.1-6.1,8.8-6.1c5.7,0,8.8,1.3,8.8,6.1v18.1c0,4.8-3.1,6.1-8.8,6.1
		c-5.7,0-8.8-1.3-8.8-6.1V221.4z M315.8,221.8c0-1.1-0.5-1.4-1.8-1.4c-1.3,0-1.8,0.3-1.8,1.4v17.4c0,1.1,0.5,1.4,1.8,1.4
		c1.3,0,1.8-0.3,1.8-1.4V221.8z"/>
	<path fill="#FFFFFF" d="M330,222.6c0-4.8,1.8-7.2,6.9-7.2h2.5c5.9,0,7.8,1.6,7.8,5.1v5.4h-6.6v-3.9c0-0.9-0.6-1.3-1.7-1.3
		c-1.2,0-1.8,0.4-1.8,1.3v17.2c0,0.9,0.6,1.3,1.8,1.3c1.1,0,1.8-0.4,1.8-1.3v-4.7h6.6v4.4c0,5.3-2,6.9-7.8,6.9h-2.5
		c-5,0-6.9-2.5-6.9-6.4V222.6z"/>
	<path fill="#FFFFFF" d="M357.3,215.7h11.1l4.5,29.7h-6.9l-0.9-7.1h-4.4l-0.9,7.1h-6.9L357.3,215.7z M362.9,219.8L362.9,219.8
		l-1.7,13.4h3.3L362.9,219.8z"/>
	<path fill="#FFFFFF" d="M379.2,215.7h6.8V240h6.6v5.3h-13.4V215.7z"/>
</g>
</svg>
