<?xml version="1.0" encoding="utf-8"?>
<!-- Generator: Adobe Illustrator 18.1.1, SVG Export Plug-In . SVG Version: 6.00 Build 0)  -->
<svg version="1.1" id="Layer_1" xmlns="http://www.w3.org/2000/svg" xmlns:xlink="http://www.w3.org/1999/xlink" x="0px" y="0px"
	 viewBox="0 0 90 82.2" enable-background="new 0 0 90 82.2" xml:space="preserve">
<g>
	<path fill="#DF4614" d="M66.5,33.2C66.5,14.9,51.6,0,33.2,0C14.9,0,0,14.9,0,33.2l0,48.2h19V34.7c0-7.8,6.4-14.2,14.2-14.2
		c7.8,0,14.2,6.4,14.2,14.2v10.7c0,5.2,4.2,9.5,9.5,9.5s9.6-4.2,9.6-9.5V33.2z"/>
	<path fill="#3996D2" d="M23.5,48.4c0,18.4,14.9,33.2,33.2,33.2S90,66.8,90,48.4V0.2H71v46.7c0,7.8-6.4,14.2-14.2,14.2
		c-7.8,0-14.2-6.4-14.2-14.2V36.1c0-5.2-4.2-9.5-9.5-9.5s-9.6,4.2-9.6,9.5V48.4z"/>
</g>
</svg>
