<?xml version="1.0" encoding="utf-8"?>
<!-- Generator: Adobe Illustrator 18.1.1, SVG Export Plug-In . SVG Version: 6.00 Build 0)  -->
<svg version="1.1" id="Layer_1" xmlns="http://www.w3.org/2000/svg" xmlns:xlink="http://www.w3.org/1999/xlink" x="0px" y="0px"
	 viewBox="0 0 1024 768" enable-background="new 0 0 1024 768" xml:space="preserve">
<rect x="406.8" y="152.3" fill="#FFFFFF" width="79.6" height="68.1"/>
<path fill="#FFFFFF" d="M212.7,257.7v45.8h3.3c6.1-19.6,15-31.9,27-38.8c12.2-7.4,27.6-9.7,46.3-9.7c54.4,0,79.1,25.7,79.1,78.7v170
	H288V352.3c-0.4-24.1-6.9-35.7-33.3-35.7c-36.1,0-42,21.5-42,51.5v135.4h-80.6V257.7C132.1,257.7,212.7,257.7,212.7,257.7z"/>
<path fill="#FFFFFF" d="M486.5,503.4h-80.4V257.7h80.4V503.4z"/>
<path fill="#FFFFFF" d="M614.4,503.4H534V152.2h80.4V503.4z"/>
<path fill="#FFFFFF" d="M891.3,421.4c0,37.1-12.2,58-33.3,70.3c-21.1,11.6-51.1,14.6-86.7,14.6c-97,0-120.3-33.8-120.3-125.4
	c0-94.6,21.5-126,120.3-126c92.2,0,119.8,25.7,119.8,126v13.7H731.5c0,43,6.5,55.7,39.8,55.7c24.8,0,40.7-2.8,40.7-28.7h79.4v-0.1
	H891.3z M810.6,349.8c0-36.5-13.7-38.8-40.7-38.8c-28.5,0-37.4,6.5-38.4,38.8H810.6z"/>
<g enable-background="new    ">
	<path fill="#FFFFFF" d="M143.7,541.3h-11.5v-12.9h39.5v12.9h-11.5v59h-16.5V541.3z"/>
	<path fill="#FFFFFF" d="M182.4,528.4h16.5v28.1h9.5v-28.1h16.5v71.9h-16.5v-30.9h-9.5v30.9h-16.5V528.4z"/>
	<path fill="#FFFFFF" d="M239.6,528.4h31.7v12.9h-15.2v15.8h14.1v12.3h-14.1v18h16.4v12.9h-32.9V528.4z"/>
	<path fill="#FFFFFF" d="M328.2,581.8c0,5,0,7,4.9,7c3.7,0,4.9-1.2,4.9-4.3v-7.7c0-5-1.1-5.3-9.7-7.3c-12.8-3.1-15.3-6.2-15.3-19
		V546c0-16.8,5.2-18.5,20.9-18.5c14.3,0,19.1,4,19.1,14v8.6h-14.7v-3.5c0-6.4-0.5-6.9-4.7-6.9c-4.4,0-4.7,1.8-4.7,5.2v4.8
		c0,4.6,1.2,5.4,6.1,6.6c17.6,4.6,19.6,5.9,19.6,24.3c0,17.3-6.4,20.4-20.4,20.4c-17.9,0-21.2-4.2-21.2-18.5v-6h15.3V581.8z"/>
	<path fill="#FFFFFF" d="M366.7,542.4c0-11.7,7.5-14.8,21.4-14.8c13.8,0,21.4,3.1,21.4,14.8v43.9c0,11.7-7.5,14.8-21.4,14.8
		c-13.8,0-21.4-3.1-21.4-14.8V542.4z M392.3,543.3c0-2.7-1.2-3.4-4.3-3.4c-3.1,0-4.3,0.7-4.3,3.4v42.1c0,2.7,1.2,3.4,4.3,3.4
		c3.1,0,4.3-0.7,4.3-3.4V543.3z"/>
	<path fill="#FFFFFF" d="M422.1,545c0-11.5,4.4-17.5,16.6-17.5h6.2c14.4,0,18.8,4,18.8,12.3V553h-15.9v-9.4c0-2.2-1.5-3.1-4.2-3.1
		c-2.9,0-4.4,0.9-4.4,3.1v41.5c0,2.2,1.5,3.1,4.3,3.1c2.8,0,4.3-0.9,4.3-3.1v-11.3h15.9v10.6c0,12.7-4.9,16.7-18.8,16.7h-6.2
		c-12.2,0-16.6-6.1-16.6-15.4V545z"/>
	<path fill="#FFFFFF" d="M477.5,528.4H494v71.9h-16.5V528.4z"/>
	<path fill="#FFFFFF" d="M516.7,528.4h26.8l10.8,71.9h-16.8l-2.1-17.3h-10.7l-2.1,17.3h-16.8L516.7,528.4z M530.2,538.3H530
		l-3.9,32.4h7.9L530.2,538.3z"/>
	<path fill="#FFFFFF" d="M565.1,528.4h16.5v59h16v12.9h-32.5V528.4z"/>
	<path fill="#FFFFFF" d="M644.9,528.4h26.8l10.8,71.9h-16.8l-2.1-17.3h-10.7l-2.1,17.3h-16.8L644.9,528.4z M658.4,538.3h-0.2
		l-3.9,32.4h7.9L658.4,538.3z"/>
	<path fill="#FFFFFF" d="M695.3,541.3h-11.5v-12.9h39.5v12.9h-11.5v59h-16.5V541.3z"/>
	<path fill="#FFFFFF" d="M734,528.4h16.5v59h16v12.9H734V528.4z"/>
	<path fill="#FFFFFF" d="M785.1,528.4h26.8l10.8,71.9H806l-2.1-17.3h-10.7l-2.1,17.3h-16.8L785.1,528.4z M798.6,538.3h-0.2
		l-3.9,32.4h7.9L798.6,538.3z"/>
	<path fill="#FFFFFF" d="M847.5,581.8c0,5,0,7,4.9,7c3.7,0,4.9-1.2,4.9-4.3v-7.7c0-5-1.1-5.3-9.7-7.3c-12.8-3.1-15.3-6.2-15.3-19
		V546c0-16.8,5.2-18.5,20.9-18.5c14.3,0,19.1,4,19.1,14v8.6h-14.7v-3.5c0-6.4-0.5-6.9-4.7-6.9c-4.4,0-4.7,1.8-4.7,5.2v4.8
		c0,4.6,1.2,5.4,6.1,6.6c17.6,4.6,19.6,5.9,19.6,24.3c0,17.3-6.4,20.4-20.4,20.4c-17.9,0-21.2-4.2-21.2-18.5v-6h15.3V581.8z"/>
</g>
</svg>
