<?xml version="1.0" encoding="utf-8"?>
<!-- Generator: Adobe Illustrator 18.1.1, SVG Export Plug-In . SVG Version: 6.00 Build 0)  -->
<svg version="1.1" id="Layer_1" xmlns="http://www.w3.org/2000/svg" xmlns:xlink="http://www.w3.org/1999/xlink" x="0px" y="0px"
	 viewBox="0 0 111 96" enable-background="new 0 0 111 96" xml:space="preserve">
<polygon fill="none" stroke="#FFFFFF" stroke-miterlimit="10" points="175.2,6725.7 149.5,6680.8 175.2,6636 227,6636 252.7,6680.8 
	227,6725.7 "/>
<polygon fill="none" stroke="#FFFFFF" stroke-miterlimit="10" points="321.4,6725.7 295.4,6680.8 321.4,6636 372.9,6636 
	398.7,6680.8 372.9,6725.7 "/>
<polygon fill="none" stroke="#FFFFFF" stroke-miterlimit="10" points="467.4,6725.7 441.4,6680.8 467.4,6636 518.9,6636 
	544.6,6680.8 518.9,6725.7 "/>
<polygon fill="none" stroke="#FFFFFF" stroke-miterlimit="10" points="613.3,6725.7 587.6,6680.8 613.3,6636 664.8,6636 
	690.6,6680.8 664.8,6725.7 "/>
<path opacity="0.7" fill="#FFFFFF" enable-background="new    " d="M213,6665.7h-6.8c-0.7,0-1.7,0.9-1.7,2.6v5h8.5v7.1h-8.5v21h-8
	v-21h-7.3v-7.1h7.3v-4.3c0-5.9,4-10.9,9.7-10.9h6.8V6665.7z"/>
<path opacity="0.7" fill="#FFFFFF" enable-background="new    " d="M635.8,6687.5c-1.2,6.6-2.8,13-7.3,16.3
	c-1.4-9.9,2.1-17.5,3.8-25.3c-2.8-4.7,0.2-13.9,6.1-11.6c7.1,2.8-6.1,17.2,2.8,18.9c9.2,1.9,13-16.1,7.3-22
	c-8.3-8.5-24.3-0.2-22.2,11.8c0.5,3.1,3.5,3.8,1.2,8c-5.4-1.2-6.8-5.4-6.6-11.1c0.2-9.2,8.3-15.6,16.3-16.5
	c10.2-1.2,19.4,3.8,20.8,13.2c1.4,10.6-4.5,22.2-15.4,21.5C639.3,6690.3,638.1,6688.9,635.8,6687.5z"/>
<path opacity="0.7" fill="#FFFFFF" enable-background="new    " d="M369.1,6666c-1.7,0.7-3.3,1.2-5.2,1.4c1.9-1.2,3.3-2.8,4-5
	c-1.7,0.9-3.8,1.9-5.7,2.1c-1.7-1.7-4-2.8-6.6-2.8c-5,0-9,4-9,9c0,0.7,0,1.4,0.2,2.1c-7.6-0.5-14.2-4-18.7-9.4
	c-0.7,1.4-1.2,2.8-1.2,4.5c0,3.1,1.7,5.9,4,7.6c-1.4,0-2.8-0.5-4-1.2l0,0c0,4.5,3.1,8,7.3,8.7c-0.7,0.2-1.7,0.2-2.4,0.2
	c-0.5,0-1.2,0-1.7-0.2c1.2,3.5,4.5,6.1,8.5,6.4c-3.1,2.4-7.1,3.8-11.1,3.8c-0.7,0-1.4,0-2.1-0.2c4,2.6,8.7,4,13.9,4
	c16.5,0,25.7-13.7,25.7-25.7c0-0.5,0-0.7,0-1.2C366.3,6669.5,368,6667.9,369.1,6666z"/>
<path opacity="0.7" fill="#FFFFFF" enable-background="new    " d="M505.4,6679.7c0,6.8-5.7,12.5-12.5,12.5
	c-6.8,0-12.5-5.7-12.5-12.5c0-0.7,0-1.7,0.2-2.4h-8.3v16.5c0,3.5,2.8,6.4,6.4,6.4h28.3c3.5,0,6.4-2.8,6.4-6.4v-16.5h-8.3
	C505.4,6678,505.4,6679,505.4,6679.7z M507.3,6659.1H479c-3.5,0-6.4,2.8-6.4,6.4v6.8H483c2.4-3.1,5.9-5.2,10.2-5.2
	c4.3,0,7.8,2.1,10.2,5.2h10.4v-6.8C513.7,6661.9,510.8,6659.1,507.3,6659.1z M510.4,6667.1c0,0.7-0.5,1.2-1.2,1.2h-3.5
	c-0.7,0-1.2-0.5-1.2-1.2v-3.5c0-0.7,0.5-1.2,1.2-1.2h3.5c0.7,0,1.2,0.5,1.2,1.2V6667.1z M500.7,6679.7c0-4.3-3.5-7.6-7.6-7.6
	c-4.3,0-7.6,3.3-7.6,7.6c0,4.3,3.3,7.6,7.6,7.6C497.4,6687.2,500.7,6683.9,500.7,6679.7z"/>
<polygon fill="none" stroke="#FFFFFF" stroke-miterlimit="10" points="175.2,6725.7 149.5,6680.8 175.2,6636 227,6636 252.7,6680.8 
	227,6725.7 "/>
<polygon fill="none" stroke="#FFFFFF" stroke-miterlimit="10" points="321.4,6725.7 295.4,6680.8 321.4,6636 372.9,6636 
	398.7,6680.8 372.9,6725.7 "/>
<polygon fill="none" stroke="#FFFFFF" stroke-miterlimit="10" points="467.4,6725.7 441.4,6680.8 467.4,6636 518.9,6636 
	544.6,6680.8 518.9,6725.7 "/>
<polygon fill="none" stroke="#FFFFFF" stroke-miterlimit="10" points="613.3,6725.7 587.6,6680.8 613.3,6636 664.8,6636 
	690.6,6680.8 664.8,6725.7 "/>
<path opacity="0.7" fill="#FFFFFF" enable-background="new    " d="M213,6665.7h-6.8c-0.7,0-1.7,0.9-1.7,2.6v5h8.5v7.1h-8.5v21h-8
	v-21h-7.3v-7.1h7.3v-4.3c0-5.9,4-10.9,9.7-10.9h6.8V6665.7z"/>
<path opacity="0.7" fill="#FFFFFF" enable-background="new    " d="M369.1,6666c-1.7,0.7-3.3,1.2-5.2,1.4c1.9-1.2,3.3-2.8,4-5
	c-1.7,0.9-3.8,1.9-5.7,2.1c-1.7-1.7-4-2.8-6.6-2.8c-5,0-9,4-9,9c0,0.7,0,1.4,0.2,2.1c-7.6-0.5-14.2-4-18.7-9.4
	c-0.7,1.4-1.2,2.8-1.2,4.5c0,3.1,1.7,5.9,4,7.6c-1.4,0-2.8-0.5-4-1.2l0,0c0,4.5,3.1,8,7.3,8.7c-0.7,0.2-1.7,0.2-2.4,0.2
	c-0.5,0-1.2,0-1.7-0.2c1.2,3.5,4.5,6.1,8.5,6.4c-3.1,2.4-7.1,3.8-11.1,3.8c-0.7,0-1.4,0-2.1-0.2c4,2.6,8.7,4,13.9,4
	c16.5,0,25.7-13.7,25.7-25.7c0-0.5,0-0.7,0-1.2C366.3,6669.5,368,6667.9,369.1,6666z"/>
<path opacity="0.7" fill="#FFFFFF" enable-background="new    " d="M505.4,6679.7c0,6.8-5.7,12.5-12.5,12.5
	c-6.8,0-12.5-5.7-12.5-12.5c0-0.7,0-1.7,0.2-2.4h-8.3v16.5c0,3.5,2.8,6.4,6.4,6.4h28.3c3.5,0,6.4-2.8,6.4-6.4v-16.5h-8.3
	C505.4,6678,505.4,6679,505.4,6679.7z M507.3,6659.1H479c-3.5,0-6.4,2.8-6.4,6.4v6.8H483c2.4-3.1,5.9-5.2,10.2-5.2
	c4.3,0,7.8,2.1,10.2,5.2h10.4v-6.8C513.7,6661.9,510.8,6659.1,507.3,6659.1z M510.4,6667.1c0,0.7-0.5,1.2-1.2,1.2h-3.5
	c-0.7,0-1.2-0.5-1.2-1.2v-3.5c0-0.7,0.5-1.2,1.2-1.2h3.5c0.7,0,1.2,0.5,1.2,1.2V6667.1z M500.7,6679.7c0-4.3-3.5-7.6-7.6-7.6
	c-4.3,0-7.6,3.3-7.6,7.6c0,4.3,3.3,7.6,7.6,7.6C497.4,6687.2,500.7,6683.9,500.7,6679.7z"/>
<g>
	<path fill="#FFFFFF" d="M639.5,6654.6c-14.9,0-26.9,12-26.9,26.9c0,14.9,12,26.9,26.9,26.9c14.9,0,26.9-12,26.9-26.9
		C666.7,6666.7,654.7,6654.6,639.5,6654.6z M655.4,6685.6c-1.9,7.1-8.3,12-15.6,12s-13.9-5-15.6-12c-0.2-0.7,0.2-1.7,1.2-1.9
		c0.9-0.2,1.7,0.2,1.9,1.2c1.4,5.9,6.6,9.9,12.8,9.9c5.9,0,11.1-4,12.8-9.9c0.2-0.7,0.9-1.4,1.9-1.2
		C655.1,6683.9,655.6,6684.9,655.4,6685.6z"/>
</g>
<polygon fill="none" stroke="#FFFFFF" stroke-miterlimit="10" points="175.2,6725.7 149.5,6680.8 175.2,6636 227,6636 252.7,6680.8 
	227,6725.7 "/>
<polygon fill="none" stroke="#FFFFFF" stroke-miterlimit="10" points="321.4,6725.7 295.4,6680.8 321.4,6636 372.9,6636 
	398.7,6680.8 372.9,6725.7 "/>
<polygon fill="none" stroke="#FFFFFF" stroke-miterlimit="10" points="467.4,6725.7 441.4,6680.8 467.4,6636 518.9,6636 
	544.6,6680.8 518.9,6725.7 "/>
<polygon fill="none" stroke="#FFFFFF" stroke-miterlimit="10" points="613.3,6725.7 587.6,6680.8 613.3,6636 664.8,6636 
	690.6,6680.8 664.8,6725.7 "/>
<path opacity="0.7" fill="#FFFFFF" enable-background="new    " d="M213,6665.7h-6.8c-0.7,0-1.7,0.9-1.7,2.6v5h8.5v7.1h-8.5v21h-8
	v-21h-7.3v-7.1h7.3v-4.3c0-5.9,4-10.9,9.7-10.9h6.8V6665.7z"/>
<path opacity="0.7" fill="#FFFFFF" enable-background="new    " d="M369.1,6666c-1.7,0.7-3.3,1.2-5.2,1.4c1.9-1.2,3.3-2.8,4-5
	c-1.7,0.9-3.8,1.9-5.7,2.1c-1.7-1.7-4-2.8-6.6-2.8c-5,0-9,4-9,9c0,0.7,0,1.4,0.2,2.1c-7.6-0.5-14.2-4-18.7-9.4
	c-0.7,1.4-1.2,2.8-1.2,4.5c0,3.1,1.7,5.9,4,7.6c-1.4,0-2.8-0.5-4-1.2l0,0c0,4.5,3.1,8,7.3,8.7c-0.7,0.2-1.7,0.2-2.4,0.2
	c-0.5,0-1.2,0-1.7-0.2c1.2,3.5,4.5,6.1,8.5,6.4c-3.1,2.4-7.1,3.8-11.1,3.8c-0.7,0-1.4,0-2.1-0.2c4,2.6,8.7,4,13.9,4
	c16.5,0,25.7-13.7,25.7-25.7c0-0.5,0-0.7,0-1.2C366.3,6669.5,368,6667.9,369.1,6666z"/>
<path opacity="0.7" fill="#FFFFFF" enable-background="new    " d="M505.4,6679.7c0,6.8-5.7,12.5-12.5,12.5
	c-6.8,0-12.5-5.7-12.5-12.5c0-0.7,0-1.7,0.2-2.4h-8.3v16.5c0,3.5,2.8,6.4,6.4,6.4h28.3c3.5,0,6.4-2.8,6.4-6.4v-16.5h-8.3
	C505.4,6678,505.4,6679,505.4,6679.7z M507.3,6659.1H479c-3.5,0-6.4,2.8-6.4,6.4v6.8H483c2.4-3.1,5.9-5.2,10.2-5.2
	c4.3,0,7.8,2.1,10.2,5.2h10.4v-6.8C513.7,6661.9,510.8,6659.1,507.3,6659.1z M510.4,6667.1c0,0.7-0.5,1.2-1.2,1.2h-3.5
	c-0.7,0-1.2-0.5-1.2-1.2v-3.5c0-0.7,0.5-1.2,1.2-1.2h3.5c0.7,0,1.2,0.5,1.2,1.2V6667.1z M500.7,6679.7c0-4.3-3.5-7.6-7.6-7.6
	c-4.3,0-7.6,3.3-7.6,7.6c0,4.3,3.3,7.6,7.6,7.6C497.4,6687.2,500.7,6683.9,500.7,6679.7z"/>
<g>
	<path fill="#FFFFFF" d="M639.5,6654.6c-14.9,0-26.9,12-26.9,26.9c0,14.9,12,26.9,26.9,26.9c14.9,0,26.9-12,26.9-26.9
		C666.7,6666.7,654.7,6654.6,639.5,6654.6z M655.4,6685.6c-1.9,7.1-8.3,12-15.6,12s-13.9-5-15.6-12c-0.2-0.7,0.2-1.7,1.2-1.9
		c0.9-0.2,1.7,0.2,1.9,1.2c1.4,5.9,6.6,9.9,12.8,9.9c5.9,0,11.1-4,12.8-9.9c0.2-0.7,0.9-1.4,1.9-1.2
		C655.1,6683.9,655.6,6684.9,655.4,6685.6z"/>
</g>
<g>
	<g>
		<path fill="#FFFFFF" d="M362.3-169.3l25.7,44.9l-25.7,44.9h-51.5l-25.7-44.9l25.7-44.9h50.5 M363.7-171.6h-1.4h-51.5h-1.4
			l-0.7,0.7l-25.7,44.6l-0.7,0.9l0.7,1.2l25.7,45.3l0.7,1.7h1.4h51.5h1.4l0.7-1.9l25.7-45.1l0.7-1.4l-0.7-1.2l-25.7-44.4
			L363.7-171.6L363.7-171.6z"/>
	</g>
	<path opacity="0.7" fill="#FFFFFF" enable-background="new    " d="M358.5-135.7c-1.7,0.7-3.3,1.2-5.2,1.4c1.9-1.2,3.3-2.8,4-5
		c-1.7,0.9-3.8,1.9-5.7,2.1c-1.7-1.7-4-2.8-6.6-2.8c-5,0-9,4-9,9c0,0.7,0,1.4,0.2,2.1c-7.6-0.5-14.2-4-18.7-9.4
		c-0.7,1.4-1.2,2.8-1.2,4.5c0,3.1,1.7,5.9,4,7.6c-1.4,0-2.8-0.5-4-1.2l0,0c0,4.5,3.1,8,7.3,8.7c-0.7,0.2-1.7,0.2-2.4,0.2
		c-0.5,0-1.2,0-1.7-0.2c1.2,3.5,4.5,6.1,8.5,6.4c-3.1,2.4-7.1,3.8-11.1,3.8c-0.7,0-1.4,0-2.1-0.2c4,2.6,8.7,4,13.9,4
		c16.5,0,25.7-13.7,25.7-25.7c0-0.5,0-0.7,0-1.2C355.9-132.2,357.3-133.9,358.5-135.7z"/>
</g>
<g>
	<g>
		<path fill="#FFFFFF" d="M81.2,3.1L107,48L81.2,92.9H29.8L4,48L29.8,3.1h50.5 M82.7,0.8h-1.4H29.8h-1.4l-0.7,0.7L1.9,45.9l-0.7,0.9
			L1.9,48l25.7,45.3l0.7,1.9h1.4h51.5h1.4l0.7-1.9l25.7-45.1l0.7-1.4l-0.7-1.2L83.4,1.5L82.7,0.8L82.7,0.8z"/>
	</g>
	<g opacity="0.7">
		<path fill="#FFFFFF" d="M56,22.5c-14.4,0-26.2,11.8-26.2,26.2S41.6,74.9,56,74.9s26.2-11.8,26.2-26.2S70.6,22.5,56,22.5z
			 M71.3,52.5c-1.9,6.8-8,11.8-15.1,11.8s-13.5-4.7-15.1-11.8c-0.2-0.7,0.2-1.7,1.2-1.9c0.7-0.2,1.7,0.2,1.9,1.2
			c1.4,5.7,6.4,9.4,12.3,9.4c5.7,0,10.9-4,12.3-9.4c0.2-0.7,0.9-1.2,1.9-1.2C71.1,51.1,71.6,51.8,71.3,52.5z"/>
	</g>
</g>
</svg>
