<?xml version="1.0" encoding="utf-8"?>
<!-- Generator: Adobe Illustrator 18.1.1, SVG Export Plug-In . SVG Version: 6.00 Build 0)  -->
<svg version="1.1" id="Layer_1" xmlns="http://www.w3.org/2000/svg" xmlns:xlink="http://www.w3.org/1999/xlink" x="0px" y="0px"
	 viewBox="0 0 47 40" enable-background="new 0 0 47 40" xml:space="preserve">
<polygon fill="none" stroke="#FFFFFF" stroke-miterlimit="10" points="74.2,2847.5 63.3,2828.5 74.2,2809.5 96.1,2809.5 107,2828.5 
	96.1,2847.5 "/>
<polygon fill="none" stroke="#FFFFFF" stroke-miterlimit="10" points="136.1,2847.5 125.1,2828.5 136.1,2809.5 157.9,2809.5 
	168.8,2828.5 157.9,2847.5 "/>
<polygon fill="none" stroke="#FFFFFF" stroke-miterlimit="10" points="197.9,2847.5 186.9,2828.5 197.9,2809.5 219.7,2809.5 
	230.6,2828.5 219.7,2847.5 "/>
<polygon fill="none" stroke="#FFFFFF" stroke-miterlimit="10" points="259.7,2847.5 248.8,2828.5 259.7,2809.5 281.5,2809.5 
	292.4,2828.5 281.5,2847.5 "/>
<path opacity="0.7" fill="#FFFFFF" d="M90.2,2822.1h-2.9c-0.3,0-0.7,0.4-0.7,1.1v2.1h3.6v3h-3.6v8.9h-3.4v-8.9h-3.1v-3h3.1v-1.8
	c0-2.5,1.7-4.6,4.1-4.6h2.9V2822.1z"/>
<path opacity="0.7" fill="#FFFFFF" d="M269.2,2831.3c-0.5,2.8-1.2,5.5-3.1,6.9c-0.6-4.2,0.9-7.4,1.6-10.7c-1.2-2,0.1-5.9,2.6-4.9
	c3,1.2-2.6,7.3,1.2,8c3.9,0.8,5.5-6.8,3.1-9.3c-3.5-3.6-10.3-0.1-9.4,5c0.2,1.3,1.5,1.6,0.5,3.4c-2.3-0.5-2.9-2.3-2.8-4.7
	c0.1-3.9,3.5-6.6,6.9-7c4.3-0.5,8.2,1.6,8.8,5.6c0.6,4.5-1.9,9.4-6.5,9.1C270.7,2832.5,270.2,2831.9,269.2,2831.3z"/>
<path opacity="0.7" fill="#FFFFFF" d="M156.3,2822.2c-0.7,0.3-1.4,0.5-2.2,0.6c0.8-0.5,1.4-1.2,1.7-2.1c-0.7,0.4-1.6,0.8-2.4,0.9
	c-0.7-0.7-1.7-1.2-2.8-1.2c-2.1,0-3.8,1.7-3.8,3.8c0,0.3,0,0.6,0.1,0.9c-3.2-0.2-6-1.7-7.9-4c-0.3,0.6-0.5,1.2-0.5,1.9
	c0,1.3,0.7,2.5,1.7,3.2c-0.6,0-1.2-0.2-1.7-0.5c0,0,0,0,0,0c0,1.9,1.3,3.4,3.1,3.7c-0.3,0.1-0.7,0.1-1,0.1c-0.2,0-0.5,0-0.7-0.1
	c0.5,1.5,1.9,2.6,3.6,2.7c-1.3,1-3,1.6-4.7,1.6c-0.3,0-0.6,0-0.9-0.1c1.7,1.1,3.7,1.7,5.9,1.7c7,0,10.9-5.8,10.9-10.9
	c0-0.2,0-0.3,0-0.5C155.1,2823.7,155.8,2823,156.3,2822.2z"/>
<path opacity="0.7" fill="#FFFFFF" d="M214,2828c0,2.9-2.4,5.3-5.3,5.3c-2.9,0-5.3-2.4-5.3-5.3c0-0.3,0-0.7,0.1-1h-3.5v7
	c0,1.5,1.2,2.7,2.7,2.7h12c1.5,0,2.7-1.2,2.7-2.7v-7h-3.5C214,2827.3,214,2827.7,214,2828z M214.8,2819.3h-12
	c-1.5,0-2.7,1.2-2.7,2.7v2.9h4.4c1-1.3,2.5-2.2,4.3-2.2c1.8,0,3.3,0.9,4.3,2.2h4.4v-2.9C217.5,2820.5,216.3,2819.3,214.8,2819.3z
	 M216.1,2822.7c0,0.3-0.2,0.5-0.5,0.5h-1.5c-0.3,0-0.5-0.2-0.5-0.5v-1.5c0-0.3,0.2-0.5,0.5-0.5h1.5c0.3,0,0.5,0.2,0.5,0.5V2822.7z
	 M212,2828c0-1.8-1.5-3.2-3.2-3.2c-1.8,0-3.2,1.4-3.2,3.2s1.4,3.2,3.2,3.2C210.6,2831.2,212,2829.8,212,2828z"/>
<polygon fill="none" stroke="#FFFFFF" stroke-miterlimit="10" points="74.2,2847.5 63.3,2828.5 74.2,2809.5 96.1,2809.5 107,2828.5 
	96.1,2847.5 "/>
<polygon fill="none" stroke="#FFFFFF" stroke-miterlimit="10" points="136.1,2847.5 125.1,2828.5 136.1,2809.5 157.9,2809.5 
	168.8,2828.5 157.9,2847.5 "/>
<polygon fill="none" stroke="#FFFFFF" stroke-miterlimit="10" points="197.9,2847.5 186.9,2828.5 197.9,2809.5 219.7,2809.5 
	230.6,2828.5 219.7,2847.5 "/>
<polygon fill="none" stroke="#FFFFFF" stroke-miterlimit="10" points="259.7,2847.5 248.8,2828.5 259.7,2809.5 281.5,2809.5 
	292.4,2828.5 281.5,2847.5 "/>
<path opacity="0.7" fill="#FFFFFF" d="M90.2,2822.1h-2.9c-0.3,0-0.7,0.4-0.7,1.1v2.1h3.6v3h-3.6v8.9h-3.4v-8.9h-3.1v-3h3.1v-1.8
	c0-2.5,1.7-4.6,4.1-4.6h2.9V2822.1z"/>
<path opacity="0.7" fill="#FFFFFF" d="M156.3,2822.2c-0.7,0.3-1.4,0.5-2.2,0.6c0.8-0.5,1.4-1.2,1.7-2.1c-0.7,0.4-1.6,0.8-2.4,0.9
	c-0.7-0.7-1.7-1.2-2.8-1.2c-2.1,0-3.8,1.7-3.8,3.8c0,0.3,0,0.6,0.1,0.9c-3.2-0.2-6-1.7-7.9-4c-0.3,0.6-0.5,1.2-0.5,1.9
	c0,1.3,0.7,2.5,1.7,3.2c-0.6,0-1.2-0.2-1.7-0.5c0,0,0,0,0,0c0,1.9,1.3,3.4,3.1,3.7c-0.3,0.1-0.7,0.1-1,0.1c-0.2,0-0.5,0-0.7-0.1
	c0.5,1.5,1.9,2.6,3.6,2.7c-1.3,1-3,1.6-4.7,1.6c-0.3,0-0.6,0-0.9-0.1c1.7,1.1,3.7,1.7,5.9,1.7c7,0,10.9-5.8,10.9-10.9
	c0-0.2,0-0.3,0-0.5C155.1,2823.7,155.8,2823,156.3,2822.2z"/>
<path opacity="0.7" fill="#FFFFFF" d="M214,2828c0,2.9-2.4,5.3-5.3,5.3c-2.9,0-5.3-2.4-5.3-5.3c0-0.3,0-0.7,0.1-1h-3.5v7
	c0,1.5,1.2,2.7,2.7,2.7h12c1.5,0,2.7-1.2,2.7-2.7v-7h-3.5C214,2827.3,214,2827.7,214,2828z M214.8,2819.3h-12
	c-1.5,0-2.7,1.2-2.7,2.7v2.9h4.4c1-1.3,2.5-2.2,4.3-2.2c1.8,0,3.3,0.9,4.3,2.2h4.4v-2.9C217.5,2820.5,216.3,2819.3,214.8,2819.3z
	 M216.1,2822.7c0,0.3-0.2,0.5-0.5,0.5h-1.5c-0.3,0-0.5-0.2-0.5-0.5v-1.5c0-0.3,0.2-0.5,0.5-0.5h1.5c0.3,0,0.5,0.2,0.5,0.5V2822.7z
	 M212,2828c0-1.8-1.5-3.2-3.2-3.2c-1.8,0-3.2,1.4-3.2,3.2s1.4,3.2,3.2,3.2C210.6,2831.2,212,2829.8,212,2828z"/>
<g>
	<path fill="#FFFFFF" d="M270.8,2817.4c-6.3,0-11.4,5.1-11.4,11.4c0,6.3,5.1,11.4,11.4,11.4c6.3,0,11.4-5.1,11.4-11.4
		C282.3,2822.5,277.2,2817.4,270.8,2817.4z M277.5,2830.5c-0.8,3-3.5,5.1-6.6,5.1c-3.1,0-5.9-2.1-6.6-5.1c-0.1-0.3,0.1-0.7,0.5-0.8
		c0.4-0.1,0.7,0.1,0.8,0.5c0.6,2.5,2.8,4.2,5.4,4.2c2.5,0,4.7-1.7,5.4-4.2c0.1-0.3,0.4-0.6,0.8-0.5
		C277.4,2829.8,277.6,2830.2,277.5,2830.5z"/>
</g>
<polygon fill="none" stroke="#FFFFFF" stroke-miterlimit="10" points="74.2,2847.5 63.3,2828.5 74.2,2809.5 96.1,2809.5 107,2828.5 
	96.1,2847.5 "/>
<polygon fill="none" stroke="#FFFFFF" stroke-miterlimit="10" points="136.1,2847.5 125.1,2828.5 136.1,2809.5 157.9,2809.5 
	168.8,2828.5 157.9,2847.5 "/>
<polygon fill="none" stroke="#FFFFFF" stroke-miterlimit="10" points="197.9,2847.5 186.9,2828.5 197.9,2809.5 219.7,2809.5 
	230.6,2828.5 219.7,2847.5 "/>
<polygon fill="none" stroke="#FFFFFF" stroke-miterlimit="10" points="259.7,2847.5 248.8,2828.5 259.7,2809.5 281.5,2809.5 
	292.4,2828.5 281.5,2847.5 "/>
<path opacity="0.7" fill="#FFFFFF" d="M90.2,2822.1h-2.9c-0.3,0-0.7,0.4-0.7,1.1v2.1h3.6v3h-3.6v8.9h-3.4v-8.9h-3.1v-3h3.1v-1.8
	c0-2.5,1.7-4.6,4.1-4.6h2.9V2822.1z"/>
<path opacity="0.7" fill="#FFFFFF" d="M156.3,2822.2c-0.7,0.3-1.4,0.5-2.2,0.6c0.8-0.5,1.4-1.2,1.7-2.1c-0.7,0.4-1.6,0.8-2.4,0.9
	c-0.7-0.7-1.7-1.2-2.8-1.2c-2.1,0-3.8,1.7-3.8,3.8c0,0.3,0,0.6,0.1,0.9c-3.2-0.2-6-1.7-7.9-4c-0.3,0.6-0.5,1.2-0.5,1.9
	c0,1.3,0.7,2.5,1.7,3.2c-0.6,0-1.2-0.2-1.7-0.5c0,0,0,0,0,0c0,1.9,1.3,3.4,3.1,3.7c-0.3,0.1-0.7,0.1-1,0.1c-0.2,0-0.5,0-0.7-0.1
	c0.5,1.5,1.9,2.6,3.6,2.7c-1.3,1-3,1.6-4.7,1.6c-0.3,0-0.6,0-0.9-0.1c1.7,1.1,3.7,1.7,5.9,1.7c7,0,10.9-5.8,10.9-10.9
	c0-0.2,0-0.3,0-0.5C155.1,2823.7,155.8,2823,156.3,2822.2z"/>
<path opacity="0.7" fill="#FFFFFF" d="M214,2828c0,2.9-2.4,5.3-5.3,5.3c-2.9,0-5.3-2.4-5.3-5.3c0-0.3,0-0.7,0.1-1h-3.5v7
	c0,1.5,1.2,2.7,2.7,2.7h12c1.5,0,2.7-1.2,2.7-2.7v-7h-3.5C214,2827.3,214,2827.7,214,2828z M214.8,2819.3h-12
	c-1.5,0-2.7,1.2-2.7,2.7v2.9h4.4c1-1.3,2.5-2.2,4.3-2.2c1.8,0,3.3,0.9,4.3,2.2h4.4v-2.9C217.5,2820.5,216.3,2819.3,214.8,2819.3z
	 M216.1,2822.7c0,0.3-0.2,0.5-0.5,0.5h-1.5c-0.3,0-0.5-0.2-0.5-0.5v-1.5c0-0.3,0.2-0.5,0.5-0.5h1.5c0.3,0,0.5,0.2,0.5,0.5V2822.7z
	 M212,2828c0-1.8-1.5-3.2-3.2-3.2c-1.8,0-3.2,1.4-3.2,3.2s1.4,3.2,3.2,3.2C210.6,2831.2,212,2829.8,212,2828z"/>
<g>
	<path fill="#FFFFFF" d="M270.8,2817.4c-6.3,0-11.4,5.1-11.4,11.4c0,6.3,5.1,11.4,11.4,11.4c6.3,0,11.4-5.1,11.4-11.4
		C282.3,2822.5,277.2,2817.4,270.8,2817.4z M277.5,2830.5c-0.8,3-3.5,5.1-6.6,5.1c-3.1,0-5.9-2.1-6.6-5.1c-0.1-0.3,0.1-0.7,0.5-0.8
		c0.4-0.1,0.7,0.1,0.8,0.5c0.6,2.5,2.8,4.2,5.4,4.2c2.5,0,4.7-1.7,5.4-4.2c0.1-0.3,0.4-0.6,0.8-0.5
		C277.4,2829.8,277.6,2830.2,277.5,2830.5z"/>
</g>
<g>
	<path fill="#FFFFFF" d="M48.4-91l10.9,19L48.4-53H26.6L15.7-72l10.9-19H48 M49-92h-0.6H26.6H26l-0.3,0.3L14.8-72.9l-0.3,0.4
		l0.3,0.5l10.9,19.2L26-52h0.6h21.8H49l0.3-0.8l10.9-19.1l0.3-0.6L60.2-73L49.3-91.7L49-92L49-92z"/>
</g>
<g>
	<path fill="#FFFFFF" d="M34.8,1l10.8,19l-11,19H12.9L1.9,20L12.9,1H35 M35.3,0h-0.6H12.9h-0.6L12,0.5l-10.9,19L0.8,20l0.3,0.5
		l10.9,19l0.3,0.5h0.6h21.8h0.6l0.3-0.5l10.9-19l0.3-0.5l-0.3-0.5l-10.9-19L35.3,0L35.3,0z"/>
</g>
<path opacity="0.7" fill="#FFFFFF" d="M42.6-77.9h-2.9c-0.3,0-0.7,0.4-0.7,1.1v2.1h3.6v3h-3.6v8.9h-3.4v-8.9h-3.1v-3h3.1v-1.8
	c0-2.5,1.7-4.6,4.1-4.6h2.9V-77.9z"/>
<g>
	<g>
		<path fill="#FFFFFF" d="M153.4-72l10.9,19l-10.9,19h-21.8l-10.9-19l10.9-19H153 M154-73h-0.6h-21.8H131l-0.3,0.3l-10.9,18.9
			l-0.3,0.4l0.3,0.5l10.9,19.2L131-33h0.6h21.8h0.6l0.3-0.8l10.9-19.1l0.3-0.6l-0.3-0.5l-10.9-18.8L154-73L154-73z"/>
	</g>
	<path opacity="0.7" fill="#FFFFFF" d="M151.8-57.8c-0.7,0.3-1.4,0.5-2.2,0.6c0.8-0.5,1.4-1.2,1.7-2.1c-0.7,0.4-1.6,0.8-2.4,0.9
		c-0.7-0.7-1.7-1.2-2.8-1.2c-2.1,0-3.8,1.7-3.8,3.8c0,0.3,0,0.6,0.1,0.9c-3.2-0.2-6-1.7-7.9-4c-0.3,0.6-0.5,1.2-0.5,1.9
		c0,1.3,0.7,2.5,1.7,3.2c-0.6,0-1.2-0.2-1.7-0.5c0,0,0,0,0,0c0,1.9,1.3,3.4,3.1,3.7c-0.3,0.1-0.7,0.1-1,0.1c-0.2,0-0.5,0-0.7-0.1
		c0.5,1.5,1.9,2.6,3.6,2.7c-1.3,1-3,1.6-4.7,1.6c-0.3,0-0.6,0-0.9-0.1c1.7,1.1,3.7,1.7,5.9,1.7c7,0,10.9-5.8,10.9-10.9
		c0-0.2,0-0.3,0-0.5C150.7-56.3,151.3-57,151.8-57.8z"/>
</g>
<path opacity="0.7" fill="#FFFFFF" d="M28.8,20c0,2.9-2.4,5.3-5.3,5.3c-2.9,0-5.3-2.4-5.3-5.3c0-0.3,0-0.7,0.1-1h-3.5v7
	c0,1.5,1.2,2.7,2.7,2.7h12c1.5,0,2.7-1.2,2.7-2.7v-7h-3.5C28.7,19.3,28.8,19.7,28.8,20z M29.5,11.3h-12c-1.5,0-2.7,1.2-2.7,2.7V17
	h4.4c1-1.3,2.5-2.2,4.3-2.2c1.8,0,3.3,0.9,4.3,2.2h4.4V14C32.2,12.5,31,11.3,29.5,11.3z M30.8,14.7c0,0.3-0.2,0.5-0.5,0.5h-1.5
	c-0.3,0-0.5-0.2-0.5-0.5v-1.5c0-0.3,0.2-0.5,0.5-0.5h1.5c0.3,0,0.5,0.2,0.5,0.5V14.7z M26.7,20c0-1.8-1.5-3.2-3.2-3.2
	c-1.8,0-3.2,1.5-3.2,3.2s1.4,3.2,3.2,3.2C25.3,23.2,26.7,21.8,26.7,20z"/>
<g>
	<g>
		<path fill="#FFFFFF" d="M280.4-31l10.9,19L280.4,7h-21.8l-10.9-19l10.9-19H280 M281-32h-0.6h-21.8H258l-0.3,0.3l-10.9,18.9
			l-0.3,0.4l0.3,0.5l10.9,19.2L258,8h0.6h21.8h0.6l0.3-0.8l10.9-19.1l0.3-0.6l-0.3-0.5l-10.9-18.8L281-32L281-32z"/>
	</g>
	<g>
		<path fill="#FFFFFF" d="M269.7-22.8c-6.1,0-11.1,5-11.1,11.1s5,11.1,11.1,11.1c6.1,0,11.1-5,11.1-11.1S275.9-22.8,269.7-22.8z
			 M276.2-10.1c-0.8,2.9-3.4,5-6.4,5c-3,0-5.7-2-6.4-5c-0.1-0.3,0.1-0.7,0.5-0.8c0.3-0.1,0.7,0.1,0.8,0.5c0.6,2.4,2.7,4,5.2,4
			c2.4,0,4.6-1.7,5.2-4c0.1-0.3,0.4-0.5,0.8-0.5C276.1-10.7,276.3-10.4,276.2-10.1z"/>
	</g>
</g>
</svg>
