<?xml version="1.0" encoding="utf-8"?>
<!-- Generator: Adobe Illustrator 18.1.1, SVG Export Plug-In . SVG Version: 6.00 Build 0)  -->
<svg version="1.1" id="Layer_1" xmlns="http://www.w3.org/2000/svg" xmlns:xlink="http://www.w3.org/1999/xlink" x="0px" y="0px"
	 viewBox="0 0 47 40" enable-background="new 0 0 47 40" xml:space="preserve">
<polygon fill="none" stroke="#FFFFFF" stroke-miterlimit="10" points="74.2,2847.5 63.3,2828.5 74.2,2809.5 96.1,2809.5 107,2828.5 
	96.1,2847.5 "/>
<polygon fill="none" stroke="#FFFFFF" stroke-miterlimit="10" points="136.1,2847.5 125.1,2828.5 136.1,2809.5 157.9,2809.5 
	168.8,2828.5 157.9,2847.5 "/>
<polygon fill="none" stroke="#FFFFFF" stroke-miterlimit="10" points="197.9,2847.5 186.9,2828.5 197.9,2809.5 219.7,2809.5 
	230.6,2828.5 219.7,2847.5 "/>
<polygon fill="none" stroke="#FFFFFF" stroke-miterlimit="10" points="259.7,2847.5 248.8,2828.5 259.7,2809.5 281.5,2809.5 
	292.4,2828.5 281.5,2847.5 "/>
<path opacity="0.7" fill="#FFFFFF" d="M90.2,2822.1h-2.9c-0.3,0-0.7,0.4-0.7,1.1v2.1h3.6v3h-3.6v8.9h-3.4v-8.9h-3.1v-3h3.1v-1.8
	c0-2.5,1.7-4.6,4.1-4.6h2.9V2822.1z"/>
<path opacity="0.7" fill="#FFFFFF" d="M269.2,2831.3c-0.5,2.8-1.2,5.5-3.1,6.9c-0.6-4.2,0.9-7.4,1.6-10.7c-1.2-2,0.1-5.9,2.6-4.9
	c3,1.2-2.6,7.3,1.2,8c3.9,0.8,5.5-6.8,3.1-9.3c-3.5-3.6-10.3-0.1-9.4,5c0.2,1.3,1.5,1.6,0.5,3.4c-2.3-0.5-2.9-2.3-2.8-4.7
	c0.1-3.9,3.5-6.6,6.9-7c4.3-0.5,8.2,1.6,8.8,5.6c0.6,4.5-1.9,9.4-6.5,9.1C270.7,2832.5,270.2,2831.9,269.2,2831.3z"/>
<path opacity="0.7" fill="#FFFFFF" d="M156.3,2822.2c-0.7,0.3-1.4,0.5-2.2,0.6c0.8-0.5,1.4-1.2,1.7-2.1c-0.7,0.4-1.6,0.8-2.4,0.9
	c-0.7-0.7-1.7-1.2-2.8-1.2c-2.1,0-3.8,1.7-3.8,3.8c0,0.3,0,0.6,0.1,0.9c-3.2-0.2-6-1.7-7.9-4c-0.3,0.6-0.5,1.2-0.5,1.9
	c0,1.3,0.7,2.5,1.7,3.2c-0.6,0-1.2-0.2-1.7-0.5c0,0,0,0,0,0c0,1.9,1.3,3.4,3.1,3.7c-0.3,0.1-0.7,0.1-1,0.1c-0.2,0-0.5,0-0.7-0.1
	c0.5,1.5,1.9,2.6,3.6,2.7c-1.3,1-3,1.6-4.7,1.6c-0.3,0-0.6,0-0.9-0.1c1.7,1.1,3.7,1.7,5.9,1.7c7,0,10.9-5.8,10.9-10.9
	c0-0.2,0-0.3,0-0.5C155.1,2823.7,155.8,2823,156.3,2822.2z"/>
<path opacity="0.7" fill="#FFFFFF" d="M214,2828c0,2.9-2.4,5.3-5.3,5.3c-2.9,0-5.3-2.4-5.3-5.3c0-0.3,0-0.7,0.1-1h-3.5v7
	c0,1.5,1.2,2.7,2.7,2.7h12c1.5,0,2.7-1.2,2.7-2.7v-7h-3.5C214,2827.3,214,2827.7,214,2828z M214.8,2819.3h-12
	c-1.5,0-2.7,1.2-2.7,2.7v2.9h4.4c1-1.3,2.5-2.2,4.3-2.2c1.8,0,3.3,0.9,4.3,2.2h4.4v-2.9C217.5,2820.5,216.3,2819.3,214.8,2819.3z
	 M216.1,2822.7c0,0.3-0.2,0.5-0.5,0.5h-1.5c-0.3,0-0.5-0.2-0.5-0.5v-1.5c0-0.3,0.2-0.5,0.5-0.5h1.5c0.3,0,0.5,0.2,0.5,0.5V2822.7z
	 M212,2828c0-1.8-1.5-3.2-3.2-3.2c-1.8,0-3.2,1.4-3.2,3.2s1.4,3.2,3.2,3.2C210.6,2831.2,212,2829.8,212,2828z"/>
<polygon fill="none" stroke="#FFFFFF" stroke-miterlimit="10" points="74.2,2847.5 63.3,2828.5 74.2,2809.5 96.1,2809.5 107,2828.5 
	96.1,2847.5 "/>
<polygon fill="none" stroke="#FFFFFF" stroke-miterlimit="10" points="136.1,2847.5 125.1,2828.5 136.1,2809.5 157.9,2809.5 
	168.8,2828.5 157.9,2847.5 "/>
<polygon fill="none" stroke="#FFFFFF" stroke-miterlimit="10" points="197.9,2847.5 186.9,2828.5 197.9,2809.5 219.7,2809.5 
	230.6,2828.5 219.7,2847.5 "/>
<polygon fill="none" stroke="#FFFFFF" stroke-miterlimit="10" points="259.7,2847.5 248.8,2828.5 259.7,2809.5 281.5,2809.5 
	292.4,2828.5 281.5,2847.5 "/>
<path opacity="0.7" fill="#FFFFFF" d="M90.2,2822.1h-2.9c-0.3,0-0.7,0.4-0.7,1.1v2.1h3.6v3h-3.6v8.9h-3.4v-8.9h-3.1v-3h3.1v-1.8
	c0-2.5,1.7-4.6,4.1-4.6h2.9V2822.1z"/>
<path opacity="0.7" fill="#FFFFFF" d="M156.3,2822.2c-0.7,0.3-1.4,0.5-2.2,0.6c0.8-0.5,1.4-1.2,1.7-2.1c-0.7,0.4-1.6,0.8-2.4,0.9
	c-0.7-0.7-1.7-1.2-2.8-1.2c-2.1,0-3.8,1.7-3.8,3.8c0,0.3,0,0.6,0.1,0.9c-3.2-0.2-6-1.7-7.9-4c-0.3,0.6-0.5,1.2-0.5,1.9
	c0,1.3,0.7,2.5,1.7,3.2c-0.6,0-1.2-0.2-1.7-0.5c0,0,0,0,0,0c0,1.9,1.3,3.4,3.1,3.7c-0.3,0.1-0.7,0.1-1,0.1c-0.2,0-0.5,0-0.7-0.1
	c0.5,1.5,1.9,2.6,3.6,2.7c-1.3,1-3,1.6-4.7,1.6c-0.3,0-0.6,0-0.9-0.1c1.7,1.1,3.7,1.7,5.9,1.7c7,0,10.9-5.8,10.9-10.9
	c0-0.2,0-0.3,0-0.5C155.1,2823.7,155.8,2823,156.3,2822.2z"/>
<path opacity="0.7" fill="#FFFFFF" d="M214,2828c0,2.9-2.4,5.3-5.3,5.3c-2.9,0-5.3-2.4-5.3-5.3c0-0.3,0-0.7,0.1-1h-3.5v7
	c0,1.5,1.2,2.7,2.7,2.7h12c1.5,0,2.7-1.2,2.7-2.7v-7h-3.5C214,2827.3,214,2827.7,214,2828z M214.8,2819.3h-12
	c-1.5,0-2.7,1.2-2.7,2.7v2.9h4.4c1-1.3,2.5-2.2,4.3-2.2c1.8,0,3.3,0.9,4.3,2.2h4.4v-2.9C217.5,2820.5,216.3,2819.3,214.8,2819.3z
	 M216.1,2822.7c0,0.3-0.2,0.5-0.5,0.5h-1.5c-0.3,0-0.5-0.2-0.5-0.5v-1.5c0-0.3,0.2-0.5,0.5-0.5h1.5c0.3,0,0.5,0.2,0.5,0.5V2822.7z
	 M212,2828c0-1.8-1.5-3.2-3.2-3.2c-1.8,0-3.2,1.4-3.2,3.2s1.4,3.2,3.2,3.2C210.6,2831.2,212,2829.8,212,2828z"/>
<g>
	<path fill="#FFFFFF" d="M270.8,2817.4c-6.3,0-11.4,5.1-11.4,11.4c0,6.3,5.1,11.4,11.4,11.4c6.3,0,11.4-5.1,11.4-11.4
		C282.3,2822.5,277.2,2817.4,270.8,2817.4z M277.5,2830.5c-0.8,3-3.5,5.1-6.6,5.1c-3.1,0-5.9-2.1-6.6-5.1c-0.1-0.3,0.1-0.7,0.5-0.8
		c0.4-0.1,0.7,0.1,0.8,0.5c0.6,2.5,2.8,4.2,5.4,4.2c2.5,0,4.7-1.7,5.4-4.2c0.1-0.3,0.4-0.6,0.8-0.5
		C277.4,2829.8,277.6,2830.2,277.5,2830.5z"/>
</g>
<polygon fill="none" stroke="#FFFFFF" stroke-miterlimit="10" points="74.2,2847.5 63.3,2828.5 74.2,2809.5 96.1,2809.5 107,2828.5 
	96.1,2847.5 "/>
<polygon fill="none" stroke="#FFFFFF" stroke-miterlimit="10" points="136.1,2847.5 125.1,2828.5 136.1,2809.5 157.9,2809.5 
	168.8,2828.5 157.9,2847.5 "/>
<polygon fill="none" stroke="#FFFFFF" stroke-miterlimit="10" points="197.9,2847.5 186.9,2828.5 197.9,2809.5 219.7,2809.5 
	230.6,2828.5 219.7,2847.5 "/>
<polygon fill="none" stroke="#FFFFFF" stroke-miterlimit="10" points="259.7,2847.5 248.8,2828.5 259.7,2809.5 281.5,2809.5 
	292.4,2828.5 281.5,2847.5 "/>
<path opacity="0.7" fill="#FFFFFF" d="M90.2,2822.1h-2.9c-0.3,0-0.7,0.4-0.7,1.1v2.1h3.6v3h-3.6v8.9h-3.4v-8.9h-3.1v-3h3.1v-1.8
	c0-2.5,1.7-4.6,4.1-4.6h2.9V2822.1z"/>
<path opacity="0.7" fill="#FFFFFF" d="M156.3,2822.2c-0.7,0.3-1.4,0.5-2.2,0.6c0.8-0.5,1.4-1.2,1.7-2.1c-0.7,0.4-1.6,0.8-2.4,0.9
	c-0.7-0.7-1.7-1.2-2.8-1.2c-2.1,0-3.8,1.7-3.8,3.8c0,0.3,0,0.6,0.1,0.9c-3.2-0.2-6-1.7-7.9-4c-0.3,0.6-0.5,1.2-0.5,1.9
	c0,1.3,0.7,2.5,1.7,3.2c-0.6,0-1.2-0.2-1.7-0.5c0,0,0,0,0,0c0,1.9,1.3,3.4,3.1,3.7c-0.3,0.1-0.7,0.1-1,0.1c-0.2,0-0.5,0-0.7-0.1
	c0.5,1.5,1.9,2.6,3.6,2.7c-1.3,1-3,1.6-4.7,1.6c-0.3,0-0.6,0-0.9-0.1c1.7,1.1,3.7,1.7,5.9,1.7c7,0,10.9-5.8,10.9-10.9
	c0-0.2,0-0.3,0-0.5C155.1,2823.7,155.8,2823,156.3,2822.2z"/>
<path opacity="0.7" fill="#FFFFFF" d="M214,2828c0,2.9-2.4,5.3-5.3,5.3c-2.9,0-5.3-2.4-5.3-5.3c0-0.3,0-0.7,0.1-1h-3.5v7
	c0,1.5,1.2,2.7,2.7,2.7h12c1.5,0,2.7-1.2,2.7-2.7v-7h-3.5C214,2827.3,214,2827.7,214,2828z M214.8,2819.3h-12
	c-1.5,0-2.7,1.2-2.7,2.7v2.9h4.4c1-1.3,2.5-2.2,4.3-2.2c1.8,0,3.3,0.9,4.3,2.2h4.4v-2.9C217.5,2820.5,216.3,2819.3,214.8,2819.3z
	 M216.1,2822.7c0,0.3-0.2,0.5-0.5,0.5h-1.5c-0.3,0-0.5-0.2-0.5-0.5v-1.5c0-0.3,0.2-0.5,0.5-0.5h1.5c0.3,0,0.5,0.2,0.5,0.5V2822.7z
	 M212,2828c0-1.8-1.5-3.2-3.2-3.2c-1.8,0-3.2,1.4-3.2,3.2s1.4,3.2,3.2,3.2C210.6,2831.2,212,2829.8,212,2828z"/>
<g>
	<path fill="#FFFFFF" d="M270.8,2817.4c-6.3,0-11.4,5.1-11.4,11.4c0,6.3,5.1,11.4,11.4,11.4c6.3,0,11.4-5.1,11.4-11.4
		C282.3,2822.5,277.2,2817.4,270.8,2817.4z M277.5,2830.5c-0.8,3-3.5,5.1-6.6,5.1c-3.1,0-5.9-2.1-6.6-5.1c-0.1-0.3,0.1-0.7,0.5-0.8
		c0.4-0.1,0.7,0.1,0.8,0.5c0.6,2.5,2.8,4.2,5.4,4.2c2.5,0,4.7-1.7,5.4-4.2c0.1-0.3,0.4-0.6,0.8-0.5
		C277.4,2829.8,277.6,2830.2,277.5,2830.5z"/>
</g>
<g>
	<path fill="#FFFFFF" d="M34.4,1l10.9,19L34.4,39H12.6L1.7,20L12.6,1H34 M35,0h-0.6H12.6H12l-0.3,0.3L0.8,19.1l-0.3,0.4L0.8,20
		l10.9,19.2L12,40h0.6h21.8H35l0.3-0.8l10.9-19.1l0.3-0.6L46.2,19L35.3,0.3L35,0L35,0z"/>
</g>
<g>
	<path fill="#FFFFFF" d="M95.9,0.8l10.9,19.1L95.9,39H74.1L63.1,20L74.1,1H96 M96.5,0h-0.6H74.1h-0.6l-0.3,0.3L62.3,19.1L62,19.6
		l0.3,0.5l10.9,19.2l0.3,0.7h0.6h21.8h0.6l0.3-0.8l10.9-19.1l0.3-0.6l-0.3-0.5L96.8,0.3L96.5,0L96.5,0z"/>
</g>
<g>
	<path fill="#FFFFFF" d="M157.3,0.8l11.1,19.1L157.7,39h-21.8l-10.9-19l10.9-19H157 M158.3,0h-0.6h-21.8h-0.6L135,0.3l-10.9,18.9
		l-0.3,0.4l0.3,0.5L135,39.3l0.3,0.7h0.6h21.8h0.6l0.3-0.8l10.9-19.1l0.3-0.6l-0.3-0.5L158.6,0.3L158.3,0L158.3,0z"/>
</g>
<g>
	<path fill="#FFFFFF" d="M219.3,0.8l11,19.1L219.5,39h-21.8l-10.9-19l10.9-19H219 M220.1,0h-0.6h-21.8h-0.6l-0.3,0.3l-10.9,18.9
		l-0.3,0.4l0.3,0.5l10.9,19.2l0.3,0.7h0.6h21.8h0.6l0.3-0.8l10.9-19.1l0.3-0.6l-0.3-0.5L220.4,0.3L220.1,0L220.1,0z"/>
</g>
<path opacity="0.7" fill="#FFFFFF" d="M28.6,14.1h-2.9c-0.3,0-0.7,0.4-0.7,1.1v2.1h3.6v3h-3.6v8.9h-3.4v-8.9h-3.1v-3h3.1v-1.8
	c0-2.5,1.7-4.6,4.1-4.6h2.9V14.1z"/>
<path opacity="0.7" fill="#FFFFFF" d="M94.3,13.7c-0.7,0.3-1.4,0.5-2.2,0.6c0.8-0.5,1.4-1.2,1.7-2.1c-0.7,0.4-1.6,0.8-2.4,0.9
	c-0.7-0.7-1.7-1.2-2.8-1.2c-2.1,0-3.8,1.7-3.8,3.8c0,0.3,0,0.6,0.1,0.9c-3.2-0.2-6-1.7-7.9-4c-0.3,0.6-0.5,1.2-0.5,1.9
	c0,1.3,0.7,2.5,1.7,3.2c-0.6,0-1.2-0.2-1.7-0.5c0,0,0,0,0,0c0,1.9,1.3,3.4,3.1,3.7c-0.3,0.1-0.7,0.1-1,0.1c-0.2,0-0.5,0-0.7-0.1
	c0.5,1.5,1.9,2.6,3.6,2.7c-1.3,1-3,1.6-4.7,1.6c-0.3,0-0.6,0-0.9-0.1c1.7,1.1,3.7,1.7,5.9,1.7c7,0,10.9-5.8,10.9-10.9
	c0-0.2,0-0.3,0-0.5C93.1,15.2,93.8,14.5,94.3,13.7z"/>
<path opacity="0.7" fill="#FFFFFF" d="M152,19.5c0,2.9-2.4,5.3-5.3,5.3c-2.9,0-5.3-2.4-5.3-5.3c0-0.3,0-0.7,0.1-1h-3.5v7
	c0,1.5,1.2,2.7,2.7,2.7h12c1.5,0,2.7-1.2,2.7-2.7v-7h-3.5C152,18.8,152,19.2,152,19.5z M152.8,10.8h-12c-1.5,0-2.7,1.2-2.7,2.7v2.9
	h4.4c1-1.3,2.5-2.2,4.3-2.2c1.8,0,3.3,0.9,4.3,2.2h4.4v-2.9C155.5,12,154.3,10.8,152.8,10.8z M154.1,14.2c0,0.3-0.2,0.5-0.5,0.5
	h-1.5c-0.3,0-0.5-0.2-0.5-0.5v-1.5c0-0.3,0.2-0.5,0.5-0.5h1.5c0.3,0,0.5,0.2,0.5,0.5V14.2z M150,19.5c0-1.8-1.5-3.2-3.2-3.2
	c-1.8,0-3.2,1.5-3.2,3.2s1.4,3.2,3.2,3.2C148.6,22.7,150,21.3,150,19.5z"/>
<g>
	<path fill="#FFFFFF" d="M208.8,9.2c-6.1,0-11.1,5-11.1,11.1s5,11.1,11.1,11.1c6.1,0,11.1-5,11.1-11.1S214.9,9.2,208.8,9.2z
		 M215.3,21.9c-0.8,2.9-3.4,5-6.4,5s-5.7-2-6.4-5c-0.1-0.3,0.1-0.7,0.5-0.8c0.3-0.1,0.7,0.1,0.8,0.5c0.6,2.4,2.7,4,5.2,4
		c2.4,0,4.6-1.7,5.2-4c0.1-0.3,0.4-0.5,0.8-0.5C215.1,21.3,215.3,21.6,215.3,21.9z"/>
</g>
</svg>
