<?xml version="1.0" encoding="utf-8"?>
<!-- Generator: Adobe Illustrator 18.1.1, SVG Export Plug-In . SVG Version: 6.00 Build 0)  -->
<svg version="1.1" id="Layer_1" xmlns="http://www.w3.org/2000/svg" xmlns:xlink="http://www.w3.org/1999/xlink" x="0px" y="0px"
	 viewBox="0 0 232 40" enable-background="new 0 0 232 40" xml:space="preserve">
<polygon fill="none" stroke="#FFFFFF" stroke-miterlimit="10" points="73.8,2847 62.9,2828 73.8,2809 95.7,2809 106.6,2828 
	95.7,2847 "/>
<polygon fill="none" stroke="#FFFFFF" stroke-miterlimit="10" points="135.6,2847 124.7,2828 135.6,2809 157.5,2809 168.4,2828 
	157.5,2847 "/>
<polygon fill="none" stroke="#FFFFFF" stroke-miterlimit="10" points="197.4,2847 186.5,2828 197.4,2809 219.3,2809 230.2,2828 
	219.3,2847 "/>
<polygon fill="none" stroke="#FFFFFF" stroke-miterlimit="10" points="259.2,2847 248.3,2828 259.2,2809 281.1,2809 292,2828 
	281.1,2847 "/>
<path opacity="0.7" fill="#FFFFFF" d="M89.8,2822.1h-2.9c-0.3,0-0.7,0.4-0.7,1.1v2.1h3.6v3h-3.6v8.9h-3.4v-8.9h-3.1v-3h3.1v-1.8
	c0-2.5,1.7-4.6,4.1-4.6h2.9V2822.1z"/>
<path opacity="0.7" fill="#FFFFFF" d="M268.8,2831.3c-0.5,2.8-1.2,5.5-3.1,6.9c-0.6-4.2,0.9-7.4,1.6-10.7c-1.2-2,0.1-5.9,2.6-4.9
	c3,1.2-2.6,7.3,1.2,8c3.9,0.8,5.5-6.8,3.1-9.3c-3.5-3.6-10.3-0.1-9.4,5c0.2,1.3,1.5,1.6,0.5,3.4c-2.3-0.5-2.9-2.3-2.8-4.7
	c0.1-3.9,3.5-6.6,6.9-7c4.3-0.5,8.2,1.6,8.8,5.6c0.6,4.5-1.9,9.4-6.5,9.1C270.2,2832.5,269.7,2831.9,268.8,2831.3z"/>
<path opacity="0.7" fill="#FFFFFF" d="M155.9,2822.2c-0.7,0.3-1.4,0.5-2.2,0.6c0.8-0.5,1.4-1.2,1.7-2.1c-0.7,0.4-1.6,0.8-2.4,0.9
	c-0.7-0.7-1.7-1.2-2.8-1.2c-2.1,0-3.8,1.7-3.8,3.8c0,0.3,0,0.6,0.1,0.9c-3.2-0.2-6-1.7-7.9-4c-0.3,0.6-0.5,1.2-0.5,1.9
	c0,1.3,0.7,2.5,1.7,3.2c-0.6,0-1.2-0.2-1.7-0.5c0,0,0,0,0,0c0,1.9,1.3,3.4,3.1,3.7c-0.3,0.1-0.7,0.1-1,0.1c-0.2,0-0.5,0-0.7-0.1
	c0.5,1.5,1.9,2.6,3.6,2.7c-1.3,1-3,1.6-4.7,1.6c-0.3,0-0.6,0-0.9-0.1c1.7,1.1,3.7,1.7,5.9,1.7c7,0,10.9-5.8,10.9-10.9
	c0-0.2,0-0.3,0-0.5C154.7,2823.7,155.3,2823,155.9,2822.2z"/>
<path opacity="0.7" fill="#FFFFFF" d="M213.6,2828c0,2.9-2.4,5.3-5.3,5.3c-2.9,0-5.3-2.4-5.3-5.3c0-0.3,0-0.7,0.1-1h-3.5v7
	c0,1.5,1.2,2.7,2.7,2.7h12c1.5,0,2.7-1.2,2.7-2.7v-7h-3.5C213.6,2827.3,213.6,2827.7,213.6,2828z M214.3,2819.3h-12
	c-1.5,0-2.7,1.2-2.7,2.7v2.9h4.4c1-1.3,2.5-2.2,4.3-2.2c1.8,0,3.3,0.9,4.3,2.2h4.4v-2.9C217.1,2820.5,215.8,2819.3,214.3,2819.3z
	 M215.7,2822.7c0,0.3-0.2,0.5-0.5,0.5h-1.5c-0.3,0-0.5-0.2-0.5-0.5v-1.5c0-0.3,0.2-0.5,0.5-0.5h1.5c0.3,0,0.5,0.2,0.5,0.5V2822.7z
	 M211.6,2828c0-1.8-1.5-3.2-3.2-3.2c-1.8,0-3.2,1.4-3.2,3.2s1.4,3.2,3.2,3.2C210.1,2831.2,211.6,2829.8,211.6,2828z"/>
<polygon fill="none" stroke="#FFFFFF" stroke-miterlimit="10" points="73.8,2847 62.9,2828 73.8,2809 95.7,2809 106.6,2828 
	95.7,2847 "/>
<polygon fill="none" stroke="#FFFFFF" stroke-miterlimit="10" points="135.6,2847 124.7,2828 135.6,2809 157.5,2809 168.4,2828 
	157.5,2847 "/>
<polygon fill="none" stroke="#FFFFFF" stroke-miterlimit="10" points="197.4,2847 186.5,2828 197.4,2809 219.3,2809 230.2,2828 
	219.3,2847 "/>
<polygon fill="none" stroke="#FFFFFF" stroke-miterlimit="10" points="259.2,2847 248.3,2828 259.2,2809 281.1,2809 292,2828 
	281.1,2847 "/>
<path opacity="0.7" fill="#FFFFFF" d="M89.8,2822.1h-2.9c-0.3,0-0.7,0.4-0.7,1.1v2.1h3.6v3h-3.6v8.9h-3.4v-8.9h-3.1v-3h3.1v-1.8
	c0-2.5,1.7-4.6,4.1-4.6h2.9V2822.1z"/>
<path opacity="0.7" fill="#FFFFFF" d="M155.9,2822.2c-0.7,0.3-1.4,0.5-2.2,0.6c0.8-0.5,1.4-1.2,1.7-2.1c-0.7,0.4-1.6,0.8-2.4,0.9
	c-0.7-0.7-1.7-1.2-2.8-1.2c-2.1,0-3.8,1.7-3.8,3.8c0,0.3,0,0.6,0.1,0.9c-3.2-0.2-6-1.7-7.9-4c-0.3,0.6-0.5,1.2-0.5,1.9
	c0,1.3,0.7,2.5,1.7,3.2c-0.6,0-1.2-0.2-1.7-0.5c0,0,0,0,0,0c0,1.9,1.3,3.4,3.1,3.7c-0.3,0.1-0.7,0.1-1,0.1c-0.2,0-0.5,0-0.7-0.1
	c0.5,1.5,1.9,2.6,3.6,2.7c-1.3,1-3,1.6-4.7,1.6c-0.3,0-0.6,0-0.9-0.1c1.7,1.1,3.7,1.7,5.9,1.7c7,0,10.9-5.8,10.9-10.9
	c0-0.2,0-0.3,0-0.5C154.7,2823.7,155.3,2823,155.9,2822.2z"/>
<path opacity="0.7" fill="#FFFFFF" d="M213.6,2828c0,2.9-2.4,5.3-5.3,5.3c-2.9,0-5.3-2.4-5.3-5.3c0-0.3,0-0.7,0.1-1h-3.5v7
	c0,1.5,1.2,2.7,2.7,2.7h12c1.5,0,2.7-1.2,2.7-2.7v-7h-3.5C213.6,2827.3,213.6,2827.7,213.6,2828z M214.3,2819.3h-12
	c-1.5,0-2.7,1.2-2.7,2.7v2.9h4.4c1-1.3,2.5-2.2,4.3-2.2c1.8,0,3.3,0.9,4.3,2.2h4.4v-2.9C217.1,2820.5,215.8,2819.3,214.3,2819.3z
	 M215.7,2822.7c0,0.3-0.2,0.5-0.5,0.5h-1.5c-0.3,0-0.5-0.2-0.5-0.5v-1.5c0-0.3,0.2-0.5,0.5-0.5h1.5c0.3,0,0.5,0.2,0.5,0.5V2822.7z
	 M211.6,2828c0-1.8-1.5-3.2-3.2-3.2c-1.8,0-3.2,1.4-3.2,3.2s1.4,3.2,3.2,3.2C210.1,2831.2,211.6,2829.8,211.6,2828z"/>
<g>
	<path fill="#FFFFFF" d="M270.4,2817.4c-6.3,0-11.4,5.1-11.4,11.4c0,6.3,5.1,11.4,11.4,11.4c6.3,0,11.4-5.1,11.4-11.4
		C281.8,2822.5,276.7,2817.4,270.4,2817.4z M277,2830.5c-0.8,3-3.5,5.1-6.6,5.1c-3.1,0-5.9-2.1-6.6-5.1c-0.1-0.3,0.1-0.7,0.5-0.8
		c0.4-0.1,0.7,0.1,0.8,0.5c0.6,2.5,2.8,4.2,5.4,4.2c2.5,0,4.7-1.7,5.4-4.2c0.1-0.3,0.4-0.6,0.8-0.5
		C276.9,2829.8,277.1,2830.2,277,2830.5z"/>
</g>
<polygon fill="none" stroke="#FFFFFF" stroke-miterlimit="10" points="73.8,2847 62.9,2828 73.8,2809 95.7,2809 106.6,2828 
	95.7,2847 "/>
<polygon fill="none" stroke="#FFFFFF" stroke-miterlimit="10" points="135.6,2847 124.7,2828 135.6,2809 157.5,2809 168.4,2828 
	157.5,2847 "/>
<polygon fill="none" stroke="#FFFFFF" stroke-miterlimit="10" points="197.4,2847 186.5,2828 197.4,2809 219.3,2809 230.2,2828 
	219.3,2847 "/>
<polygon fill="none" stroke="#FFFFFF" stroke-miterlimit="10" points="259.2,2847 248.3,2828 259.2,2809 281.1,2809 292,2828 
	281.1,2847 "/>
<path opacity="0.7" fill="#FFFFFF" d="M89.8,2822.1h-2.9c-0.3,0-0.7,0.4-0.7,1.1v2.1h3.6v3h-3.6v8.9h-3.4v-8.9h-3.1v-3h3.1v-1.8
	c0-2.5,1.7-4.6,4.1-4.6h2.9V2822.1z"/>
<path opacity="0.7" fill="#FFFFFF" d="M155.9,2822.2c-0.7,0.3-1.4,0.5-2.2,0.6c0.8-0.5,1.4-1.2,1.7-2.1c-0.7,0.4-1.6,0.8-2.4,0.9
	c-0.7-0.7-1.7-1.2-2.8-1.2c-2.1,0-3.8,1.7-3.8,3.8c0,0.3,0,0.6,0.1,0.9c-3.2-0.2-6-1.7-7.9-4c-0.3,0.6-0.5,1.2-0.5,1.9
	c0,1.3,0.7,2.5,1.7,3.2c-0.6,0-1.2-0.2-1.7-0.5c0,0,0,0,0,0c0,1.9,1.3,3.4,3.1,3.7c-0.3,0.1-0.7,0.1-1,0.1c-0.2,0-0.5,0-0.7-0.1
	c0.5,1.5,1.9,2.6,3.6,2.7c-1.3,1-3,1.6-4.7,1.6c-0.3,0-0.6,0-0.9-0.1c1.7,1.1,3.7,1.7,5.9,1.7c7,0,10.9-5.8,10.9-10.9
	c0-0.2,0-0.3,0-0.5C154.7,2823.7,155.3,2823,155.9,2822.2z"/>
<path opacity="0.7" fill="#FFFFFF" d="M213.6,2828c0,2.9-2.4,5.3-5.3,5.3c-2.9,0-5.3-2.4-5.3-5.3c0-0.3,0-0.7,0.1-1h-3.5v7
	c0,1.5,1.2,2.7,2.7,2.7h12c1.5,0,2.7-1.2,2.7-2.7v-7h-3.5C213.6,2827.3,213.6,2827.7,213.6,2828z M214.3,2819.3h-12
	c-1.5,0-2.7,1.2-2.7,2.7v2.9h4.4c1-1.3,2.5-2.2,4.3-2.2c1.8,0,3.3,0.9,4.3,2.2h4.4v-2.9C217.1,2820.5,215.8,2819.3,214.3,2819.3z
	 M215.7,2822.7c0,0.3-0.2,0.5-0.5,0.5h-1.5c-0.3,0-0.5-0.2-0.5-0.5v-1.5c0-0.3,0.2-0.5,0.5-0.5h1.5c0.3,0,0.5,0.2,0.5,0.5V2822.7z
	 M211.6,2828c0-1.8-1.5-3.2-3.2-3.2c-1.8,0-3.2,1.4-3.2,3.2s1.4,3.2,3.2,3.2C210.1,2831.2,211.6,2829.8,211.6,2828z"/>
<g>
	<path fill="#FFFFFF" d="M270.4,2817.4c-6.3,0-11.4,5.1-11.4,11.4c0,6.3,5.1,11.4,11.4,11.4c6.3,0,11.4-5.1,11.4-11.4
		C281.8,2822.5,276.7,2817.4,270.4,2817.4z M277,2830.5c-0.8,3-3.5,5.1-6.6,5.1c-3.1,0-5.9-2.1-6.6-5.1c-0.1-0.3,0.1-0.7,0.5-0.8
		c0.4-0.1,0.7,0.1,0.8,0.5c0.6,2.5,2.8,4.2,5.4,4.2c2.5,0,4.7-1.7,5.4-4.2c0.1-0.3,0.4-0.6,0.8-0.5
		C276.9,2829.8,277.1,2830.2,277,2830.5z"/>
</g>
<g>
	<path fill="#FFFFFF" d="M33.8,0.5l10.9,19l-11,19H11.8l-10.9-19l10.9-19h22.1 M34.2-0.5h-0.6H11.8h-0.6L10.9,0L0,19l-0.3,0.5L0,20
		l10.9,19l0.3,0.5h0.6h21.8h0.6l0.3-0.5l10.9-19l0.3-0.5L45.4,19L34.5,0L34.2-0.5L34.2-0.5z"/>
</g>
<g>
	<path fill="#FFFFFF" d="M95.7,0.5l10.8,19l-11,19H73.6l-10.9-19l10.9-19h22.2 M96-0.5h-0.6H73.6H73L72.8,0L61.8,19l-0.3,0.5
		l0.3,0.5l10.9,19l0.3,0.5h0.6h21.8H96l0.3-0.5l10.9-19l0.3-0.5l-0.3-0.5L96.3,0L96-0.5L96-0.5z"/>
</g>
<g>
	<path fill="#FFFFFF" d="M157.1,0.5l11,19l-10.8,19h-21.8l-10.9-19l10.9-19h21.4 M157.9-0.5h-0.6h-21.8h-0.6L134.6,0l-10.9,19
		l-0.3,0.5l0.3,0.5l10.9,19l0.3,0.5h0.6h21.8h0.6l0.3-0.5l10.9-19l0.3-0.5l-0.3-0.5L158.1,0L157.9-0.5L157.9-0.5z"/>
</g>
<g>
	<path fill="#FFFFFF" d="M219,0.5l11,19l-10.9,19h-21.8l-10.9-19l10.9-19h21.6 M219.7-0.5h-0.6h-21.8h-0.6L196.4,0l-10.9,19
		l-0.3,0.5l0.3,0.5l10.9,19l0.3,0.5h0.6h21.8h0.6l0.3-0.5l10.9-19l0.3-0.5l-0.3-0.5L219.9,0L219.7-0.5L219.7-0.5z"/>
</g>
<path opacity="0.7" fill="#FFFFFF" d="M27.8,13.6h-2.9c-0.3,0-0.7,0.4-0.7,1.1v2.1h3.6v3h-3.6v8.9h-3.4v-8.9h-3.1v-3h3.1v-1.8
	c0-2.5,1.7-4.6,4.1-4.6h2.9V13.6z"/>
<path opacity="0.7" fill="#FFFFFF" d="M93.9,13.7c-0.7,0.3-1.4,0.5-2.2,0.6c0.8-0.5,1.4-1.2,1.7-2.1c-0.7,0.4-1.6,0.8-2.4,0.9
	c-0.7-0.7-1.7-1.2-2.8-1.2c-2.1,0-3.8,1.7-3.8,3.8c0,0.3,0,0.6,0.1,0.9c-3.2-0.2-6-1.7-7.9-4c-0.3,0.6-0.5,1.2-0.5,1.9
	c0,1.3,0.7,2.5,1.7,3.2c-0.6,0-1.2-0.2-1.7-0.5c0,0,0,0,0,0c0,1.9,1.3,3.4,3.1,3.7c-0.3,0.1-0.7,0.1-1,0.1c-0.2,0-0.5,0-0.7-0.1
	c0.5,1.5,1.9,2.6,3.6,2.7c-1.3,1-3,1.6-4.7,1.6c-0.3,0-0.6,0-0.9-0.1c1.7,1.1,3.7,1.7,5.9,1.7c7,0,10.9-5.8,10.9-10.9
	c0-0.2,0-0.3,0-0.5C92.7,15.2,93.3,14.5,93.9,13.7z"/>
<path opacity="0.7" fill="#FFFFFF" d="M151.6,19.5c0,2.9-2.4,5.3-5.3,5.3c-2.9,0-5.3-2.4-5.3-5.3c0-0.3,0-0.7,0.1-1h-3.5v7
	c0,1.5,1.2,2.7,2.7,2.7h12c1.5,0,2.7-1.2,2.7-2.7v-7h-3.5C151.6,18.8,151.6,19.2,151.6,19.5z M152.3,10.8h-12
	c-1.5,0-2.7,1.2-2.7,2.7v2.9h4.4c1-1.3,2.5-2.2,4.3-2.2c1.8,0,3.3,0.9,4.3,2.2h4.4v-2.9C155.1,12,153.8,10.8,152.3,10.8z
	 M153.7,14.2c0,0.3-0.2,0.5-0.5,0.5h-1.5c-0.3,0-0.5-0.2-0.5-0.5v-1.5c0-0.3,0.2-0.5,0.5-0.5h1.5c0.3,0,0.5,0.2,0.5,0.5V14.2z
	 M149.6,19.5c0-1.8-1.5-3.2-3.2-3.2c-1.8,0-3.2,1.5-3.2,3.2s1.4,3.2,3.2,3.2C148.1,22.7,149.6,21.3,149.6,19.5z"/>
<g>
	<path fill="#FFFFFF" d="M208.4,9.2c-6.1,0-11.1,5-11.1,11.1s5,11.1,11.1,11.1c6.1,0,11.1-5,11.1-11.1S214.5,9.2,208.4,9.2z
		 M214.8,21.9c-0.8,2.9-3.4,5-6.4,5s-5.7-2-6.4-5c-0.1-0.3,0.1-0.7,0.5-0.8c0.3-0.1,0.7,0.1,0.8,0.5c0.6,2.4,2.7,4,5.2,4
		c2.4,0,4.6-1.7,5.2-4c0.1-0.3,0.4-0.5,0.8-0.5C214.7,21.3,214.9,21.6,214.8,21.9z"/>
</g>
</svg>
